<svg xmlns="http://www.w3.org/2000/svg" viewBox="0 0 1024 1024" width="1024" height="1024">
  <defs>
    <linearGradient id="bg" x1="0" y1="0" x2="0" y2="1">
      <stop offset="0" stop-color="#2F3E4E"/>
      <stop offset="1" stop-color="#16202B"/>
    </linearGradient>
    <linearGradient id="gold" x1="0" y1="0" x2="1" y2="1">
      <stop offset="0" stop-color="#F3D27A"/>
      <stop offset="0.55" stop-color="#D9A93C"/>
      <stop offset="1" stop-color="#A8771D"/>
    </linearGradient>
    <linearGradient id="stone" x1="0" y1="0" x2="0" y2="1">
      <stop offset="0" stop-color="#DCE3EA"/>
      <stop offset="1" stop-color="#9FB0C0"/>
    </linearGradient>
  </defs>
  <!-- macOS-Kachel -->
  <rect x="64" y="64" width="896" height="896" rx="200" fill="url(#bg)"/>
  <!-- Zinnenmauer im Hintergrund -->
  <g fill="url(#stone)" opacity="0.95">
    <rect x="212" y="392" width="600" height="356" rx="18"/>
    <rect x="212" y="330" width="88" height="90" rx="10"/>
    <rect x="340" y="330" width="88" height="90" rx="10"/>
    <rect x="468" y="330" width="88" height="90" rx="10"/>
    <rect x="596" y="330" width="88" height="90" rx="10"/>
    <rect x="724" y="330" width="88" height="90" rx="10"/>
  </g>
  <!-- Fugen -->
  <g stroke="#16202B" stroke-opacity="0.18" stroke-width="6" fill="none">
    <path d="M212 470H812M212 548H812M212 626H812M212 704H812"/>
    <path d="M362 392V470M512 392V470M662 392V470M287 470V548M437 470V548M587 470V548M737 470V548M362 548V626M512 548V626M662 548V626M287 626V704M437 626V704M587 626V704M737 626V704"/>
  </g>
  <!-- Torbogen -->
  <path d="M432 748V590a80 80 0 0 1 160 0v158z" fill="#16202B"/>
  <!-- Schlüssel, diagonal -->
  <g transform="translate(512 560) rotate(-38)">
    <!-- Ring -->
    <circle cx="-210" cy="0" r="96" fill="none" stroke="url(#gold)" stroke-width="44"/>
    <circle cx="-210" cy="0" r="30" fill="#16202B" opacity="0.35"/>
    <!-- Schaft -->
    <rect x="-118" y="-24" width="418" height="48" rx="24" fill="url(#gold)"/>
    <!-- Bart -->
    <rect x="184" y="0" width="44" height="98" rx="10" fill="url(#gold)"/>
    <rect x="252" y="0" width="44" height="72" rx="10" fill="url(#gold)"/>
    <!-- Glanz -->
    <rect x="-100" y="-16" width="380" height="12" rx="6" fill="#FFF3C4" opacity="0.55"/>
  </g>
</svg>
